<?xml version="1.0" encoding="UTF-8" ?>
<!DOCTYPE svg PUBLIC "-//W3C//DTD SVG 1.1//EN" "http://www.w3.org/Graphics/SVG/1.1/DTD/svg11.dtd">
<svg width="231pt" height="140pt" viewBox="0 0 231 140" version="1.1" xmlns="http://www.w3.org/2000/svg">
<g id="#d48719ff">
<path fill="#d48719" opacity="1.00" d=" M 58.27 34.27 C 67.43 29.88 78.13 28.83 87.96 31.39 C 101.31 34.65 112.74 44.99 117.16 58.04 C 118.69 62.25 119.20 66.74 119.66 71.17 C 116.60 68.21 112.62 66.46 108.42 65.92 C 108.69 62.63 106.98 59.83 104.74 57.62 C 104.65 54.72 103.32 52.11 101.92 49.65 C 97.47 42.85 90.10 37.72 82.03 36.24 C 68.35 33.31 53.44 41.37 48.21 54.30 C 46.89 57.53 46.08 60.93 45.09 64.27 C 42.33 65.14 39.17 65.87 37.46 68.43 C 36.22 69.98 36.27 72.05 35.84 73.89 C 33.76 71.29 34.96 67.87 35.27 64.91 C 37.27 51.72 46.30 40.02 58.27 34.27 Z" />
<path fill="#d48719" opacity="1.00" d=" M 142.62 74.32 C 146.99 73.29 151.70 72.85 156.08 74.01 C 159.16 74.75 160.89 78.39 159.27 81.19 C 157.15 83.91 153.39 83.58 150.35 83.98 C 150.45 85.94 150.57 87.90 150.72 89.86 C 151.93 90.11 153.15 90.38 154.36 90.67 C 150.45 90.51 146.53 90.63 142.62 90.74 C 144.13 90.28 145.66 89.91 147.19 89.54 C 147.60 84.55 147.17 79.54 147.12 74.55 C 145.62 74.48 144.12 74.41 142.62 74.32 M 150.47 83.49 C 152.72 83.09 155.98 82.98 156.31 80.00 C 157.37 77.01 154.02 72.84 150.99 74.64 C 149.66 77.40 150.47 80.56 150.47 83.49 Z" />
<path fill="#d48719" opacity="1.00" d=" M 182.90 79.40 C 183.41 77.85 183.95 76.30 184.47 74.75 C 184.58 76.33 184.68 77.92 184.79 79.50 C 185.64 79.73 186.49 79.97 187.35 80.21 C 186.70 80.26 185.40 80.37 184.76 80.42 C 184.72 81.31 184.63 83.09 184.59 83.97 L 184.53 84.22 C 184.08 86.09 184.14 88.03 183.99 89.94 L 183.72 89.83 C 182.03 87.07 182.28 83.56 182.56 80.48 C 182.65 80.21 182.81 79.67 182.90 79.40 Z" />
<path fill="#d48719" opacity="1.00" d=" M 164.54 79.53 C 168.62 78.81 172.48 83.51 170.30 87.29 C 169.15 90.66 164.22 91.78 161.90 89.02 C 158.70 86.25 160.50 80.39 164.54 79.53 M 163.93 80.81 C 161.97 83.54 162.75 86.97 163.67 89.93 C 165.19 89.81 166.70 89.66 168.21 89.50 C 168.46 86.64 169.16 83.55 167.80 80.84 C 166.56 80.37 164.94 79.42 163.93 80.81 Z" />
<path fill="#d48719" opacity="1.00" d=" M 170.75 80.40 C 172.22 80.21 173.68 79.86 175.18 79.84 C 175.39 80.06 175.82 80.51 176.04 80.73 C 175.70 83.52 175.69 86.33 175.87 89.14 C 176.75 89.51 177.63 89.89 178.51 90.29 C 176.30 90.32 174.09 90.35 171.88 90.39 C 172.35 90.08 173.29 89.47 173.76 89.16 C 173.75 86.46 173.92 83.73 173.45 81.06 C 172.77 80.90 171.42 80.56 170.75 80.40 Z" />
</g>
<g id="#e3b33aff">
<path fill="#e3b33a" opacity="1.00" d=" M 55.87 44.68 C 66.75 35.25 84.20 34.70 95.59 43.53 C 97.99 45.28 99.43 48.02 101.92 49.65 C 103.32 52.11 104.65 54.72 104.74 57.62 C 101.45 55.95 97.95 54.76 94.29 54.28 C 93.96 53.76 93.28 52.71 92.94 52.19 C 89.78 46.44 83.60 42.35 76.95 42.38 C 69.76 42.15 62.88 46.71 60.01 53.26 C 59.51 54.23 59.02 55.22 58.56 56.21 C 56.88 57.48 55.03 58.91 55.10 61.26 C 54.89 62.43 54.71 63.60 54.55 64.78 C 51.43 64.23 48.25 64.10 45.09 64.27 C 46.08 60.93 46.89 57.53 48.21 54.30 C 50.16 50.67 52.66 47.30 55.87 44.68 Z" />
</g>
<g id="#4a3800ff">
<path fill="#4a3800" opacity="1.00" d=" M 187.46 43.35 C 189.29 41.56 192.33 41.23 194.52 42.56 C 194.88 43.87 194.79 45.24 194.84 46.58 C 194.08 46.63 192.57 46.73 191.82 46.78 C 191.82 45.97 191.86 45.16 191.97 44.37 C 192.43 44.24 193.35 43.98 193.82 43.85 C 193.62 41.82 190.97 43.06 189.72 42.75 C 189.31 45.21 189.10 47.70 189.00 50.19 C 189.80 50.22 191.39 50.28 192.19 50.31 C 191.12 50.58 190.05 50.84 188.98 51.09 C 189.27 55.55 189.35 60.07 190.07 64.47 C 190.60 64.83 191.68 65.55 192.22 65.91 C 189.63 65.82 187.05 65.80 184.47 65.77 C 185.39 65.30 186.31 64.84 187.23 64.37 C 186.68 60.04 186.29 55.69 186.24 51.32 C 185.56 51.16 184.22 50.82 183.55 50.66 C 184.19 50.55 185.49 50.32 186.14 50.21 C 186.48 47.93 186.12 45.35 187.46 43.35 M 193.23 45.24 C 193.81 45.82 193.81 45.82 193.23 45.24 Z" />
<path fill="#4a3800" opacity="1.00" d=" M 195.56 44.38 C 197.88 42.02 201.26 41.00 204.37 42.46 C 202.58 42.65 200.78 42.83 198.99 42.99 C 198.66 45.27 198.40 47.57 198.20 49.87 C 199.04 50.09 200.72 50.55 201.56 50.77 C 200.73 50.79 199.06 50.81 198.22 50.82 C 198.47 55.41 199.03 59.97 199.25 64.56 C 199.79 64.91 200.85 65.60 201.39 65.95 C 198.84 65.88 196.30 65.76 193.76 65.71 C 194.39 65.44 195.65 64.91 196.28 64.64 C 196.46 59.99 195.47 55.37 195.51 50.71 C 194.84 50.72 193.52 50.73 192.85 50.73 C 193.81 50.36 194.78 50.00 195.74 49.64 C 195.69 47.89 195.64 46.13 195.56 44.38 Z" />
<path fill="#4a3800" opacity="1.00" d=" M 153.47 42.51 C 158.82 40.52 167.16 44.29 165.75 50.89 C 165.56 53.53 162.34 52.60 160.58 52.58 C 160.49 51.57 160.40 50.56 160.32 49.54 C 161.02 49.39 162.42 49.07 163.13 48.92 C 162.53 49.50 161.35 50.66 160.75 51.25 C 162.11 51.52 163.48 51.78 164.85 52.02 C 166.85 46.02 159.71 41.09 154.42 43.35 C 151.04 45.23 149.84 49.39 149.87 53.04 C 150.02 57.28 150.42 61.67 152.58 65.43 C 155.38 65.59 158.52 66.61 161.10 65.10 C 162.93 63.56 163.94 61.31 165.42 59.47 C 164.64 62.38 163.08 65.68 159.90 66.52 C 155.22 67.24 149.67 66.20 146.88 62.00 C 142.72 55.26 146.29 45.50 153.47 42.51 Z" />
<path fill="#4a3800" opacity="1.00" d=" M 203.00 47.14 C 200.89 47.94 199.93 43.72 202.27 44.14 C 202.79 44.96 204.58 46.42 203.00 47.14 Z" />
<path fill="#4a3800" opacity="1.00" d=" M 208.54 49.71 C 210.58 48.97 213.18 49.40 214.39 51.36 C 215.37 53.39 215.62 55.66 216.05 57.85 C 213.07 57.90 210.09 57.89 207.12 57.86 C 207.59 59.97 207.66 62.29 208.92 64.13 C 211.27 66.19 215.64 64.24 215.10 60.93 C 214.55 60.65 213.45 60.08 212.90 59.80 C 212.75 60.74 212.44 62.62 212.28 63.55 C 212.01 62.60 211.70 61.65 211.61 60.66 C 212.24 58.78 216.11 58.83 215.86 61.13 C 216.39 64.81 211.98 66.33 209.03 65.64 C 201.91 64.09 201.32 51.61 208.54 49.71 M 207.02 57.12 C 208.87 57.11 210.72 57.10 212.57 57.08 C 212.58 54.71 212.64 52.20 211.13 50.20 C 207.13 49.59 207.37 54.46 207.02 57.12 Z" />
<path fill="#4a3800" opacity="1.00" d=" M 218.62 55.03 C 219.06 51.05 223.83 48.40 227.48 49.77 C 230.45 51.24 230.20 55.09 230.99 57.85 C 227.97 57.92 224.95 57.94 221.93 57.96 C 222.49 60.04 222.69 62.31 223.88 64.17 C 226.18 66.17 228.86 63.78 230.90 62.64 C 229.95 61.60 228.99 60.58 228.01 59.57 C 227.77 60.60 227.29 62.67 227.05 63.70 C 226.89 62.66 226.69 61.62 226.67 60.56 C 227.47 58.85 229.54 59.75 231.00 59.61 L 231.00 63.05 C 228.83 65.63 224.97 66.69 222.00 64.89 C 218.67 62.93 217.97 58.54 218.62 55.03 M 221.99 57.17 C 223.80 57.16 225.62 57.15 227.44 57.14 C 227.57 54.64 227.23 52.15 226.16 49.86 C 222.19 50.13 222.11 54.14 221.99 57.17 Z" />
<path fill="#4a3800" opacity="1.00" d=" M 173.43 50.44 C 178.40 49.19 184.13 53.87 183.01 59.10 C 182.22 62.31 179.76 66.09 176.02 65.79 C 172.05 66.54 168.14 63.02 168.02 59.10 C 167.41 55.39 170.01 51.70 173.43 50.44 M 173.67 51.60 C 170.64 55.23 170.67 60.87 173.16 64.77 C 174.98 65.15 176.84 64.85 178.67 64.73 C 179.92 61.02 180.49 56.87 179.08 53.12 C 178.05 51.48 175.38 50.40 173.67 51.60 Z" />
<path fill="#4a3800" opacity="1.00" d=" M 83.48 56.97 C 89.97 54.68 97.56 55.45 103.28 59.34 C 96.40 58.59 89.24 57.70 82.69 60.57 C 91.05 59.49 99.38 60.85 107.47 62.92 C 107.74 64.58 107.89 66.26 107.99 67.94 C 112.51 68.59 117.63 69.58 120.45 73.57 C 122.28 75.73 121.83 79.26 119.25 80.61 C 118.69 80.08 117.57 79.03 117.00 78.50 C 110.04 78.95 102.75 77.54 96.20 80.73 C 103.92 79.73 111.70 80.40 119.25 82.20 C 123.13 80.84 127.31 80.52 131.33 81.44 C 127.81 82.83 123.05 82.49 120.69 85.89 C 125.95 85.52 131.01 83.83 136.27 83.43 C 137.14 85.15 138.78 86.97 137.97 89.04 C 137.16 92.50 133.89 94.38 131.06 96.08 C 126.44 87.26 113.84 86.00 105.80 90.60 C 112.59 88.21 120.13 89.17 126.32 92.74 C 119.19 92.37 111.66 91.03 105.00 94.42 C 113.22 92.84 121.73 94.03 129.61 96.59 C 131.97 98.96 130.30 103.18 127.46 104.45 C 120.58 107.87 112.12 105.81 106.06 101.57 C 105.39 101.56 104.05 101.56 103.38 101.56 C 102.41 103.54 101.34 105.90 98.93 106.39 C 92.98 107.67 87.35 104.13 83.11 100.31 C 81.27 106.35 74.81 109.15 69.02 109.86 C 63.60 110.66 56.73 109.45 54.45 103.75 C 48.29 103.42 41.60 101.49 37.74 96.35 C 35.72 93.98 35.78 89.28 39.02 88.10 C 45.72 88.80 52.15 91.20 58.16 94.19 C 56.85 96.11 55.63 98.09 54.75 100.24 C 57.26 98.22 59.58 95.81 62.67 94.68 C 66.93 92.79 71.70 92.97 76.24 93.31 C 69.75 95.43 62.34 96.54 57.67 102.04 C 64.76 98.06 72.78 96.21 80.84 95.61 C 81.60 96.51 82.39 97.39 83.19 98.25 C 82.59 96.29 81.58 94.34 79.65 93.42 C 73.38 90.00 65.72 91.12 59.41 93.82 C 54.79 90.04 49.06 88.19 43.55 86.16 C 50.04 85.24 56.19 87.72 61.60 91.05 C 56.82 84.49 47.22 82.67 40.06 86.10 C 37.68 87.16 36.32 89.47 35.14 91.67 C 30.84 91.74 25.88 91.67 22.68 88.35 C 20.61 86.30 20.89 82.85 22.79 80.79 C 27.10 75.68 34.35 74.27 40.74 74.69 C 40.42 74.11 39.78 72.93 39.46 72.35 L 36.85 73.72 C 36.84 72.48 36.82 71.25 36.79 70.01 C 42.73 63.23 53.40 65.11 60.29 69.39 C 53.44 68.76 46.14 67.38 39.69 70.59 C 46.45 69.78 53.25 70.44 59.86 71.99 L 58.53 74.51 C 64.23 71.60 71.32 69.80 77.42 72.59 C 79.48 73.46 82.46 76.91 78.94 78.09 C 78.32 76.83 77.81 75.53 77.43 74.18 L 77.49 75.80 C 71.36 73.26 64.58 74.25 58.30 75.55 C 58.44 74.81 58.74 73.33 58.89 72.59 C 56.64 74.51 54.67 76.74 53.42 79.43 C 60.57 76.67 68.37 74.77 76.05 76.02 C 77.72 76.18 75.93 78.27 75.03 77.84 C 70.20 78.75 65.11 81.14 63.59 86.23 C 68.63 80.10 77.05 77.69 84.72 79.18 C 78.05 81.17 70.72 82.66 65.84 88.09 C 72.98 83.89 81.15 82.26 89.26 81.21 C 87.09 79.73 84.78 78.14 82.00 78.42 C 82.32 73.48 77.73 70.45 73.42 69.56 C 74.20 68.22 75.00 66.89 75.80 65.57 C 83.97 67.23 92.33 69.41 99.02 74.64 C 97.49 75.91 96.00 77.20 94.58 78.59 C 97.25 77.29 99.96 75.82 103.01 75.70 C 107.76 75.18 112.31 76.96 116.81 78.14 C 111.79 74.54 105.40 73.36 99.40 74.73 C 95.75 70.51 90.99 67.11 85.42 66.04 C 86.04 65.39 86.67 64.74 87.29 64.09 C 92.34 64.86 96.75 67.53 100.42 70.99 C 98.63 66.64 94.17 64.24 89.78 63.34 C 87.07 62.56 84.72 64.59 82.23 65.28 C 82.55 64.58 83.19 63.18 83.51 62.48 C 81.80 62.70 78.81 65.05 77.17 63.29 C 78.26 63.05 79.35 62.74 80.41 62.37 C 80.37 60.12 81.54 58.08 83.48 56.97 M 40.24 75.85 C 34.21 77.24 27.90 79.15 23.70 83.99 C 30.77 79.82 38.91 77.81 47.05 77.33 C 48.17 78.46 49.08 79.78 50.03 81.04 C 49.40 76.89 45.85 74.49 42.14 73.23 C 41.48 74.08 40.85 74.96 40.24 75.85 M 78.59 86.91 C 80.01 86.36 81.41 85.73 82.87 85.27 C 90.00 89.47 96.20 95.21 100.82 102.09 C 98.73 95.00 93.08 90.09 87.92 85.21 C 93.87 86.99 98.56 91.22 102.15 96.15 C 99.22 89.00 91.93 83.40 84.06 83.62 C 81.69 83.55 80.10 85.38 78.59 86.91 Z" />
<path fill="#4a3800" opacity="1.00" d=" M 55.10 61.26 C 55.74 59.43 57.54 58.52 59.00 57.45 C 63.69 61.04 69.78 63.82 72.33 69.43 C 69.38 69.76 66.43 70.14 63.52 70.74 C 61.26 67.80 58.02 65.95 54.55 64.78 C 54.71 63.60 54.89 62.43 55.10 61.26 Z" />
<path fill="#4a3800" opacity="1.00" d=" M 64.65 57.90 C 68.72 59.18 72.22 61.65 75.43 64.39 C 74.68 65.25 73.59 67.54 72.42 65.68 C 69.86 63.06 67.24 60.49 64.65 57.90 Z" />
<path fill="#4a3800" opacity="1.00" d=" M 175.15 79.34 C 176.64 78.99 178.22 79.07 179.72 79.36 L 180.35 79.70 C 181.20 79.68 182.05 79.58 182.90 79.40 C 182.81 79.67 182.65 80.21 182.56 80.48 C 181.44 81.08 180.18 81.48 179.54 82.67 C 178.27 83.36 177.03 82.49 176.58 81.29 L 176.04 80.73 C 175.82 80.51 175.39 80.06 175.18 79.84 L 175.15 79.34 Z" />
<path fill="#4a3800" opacity="1.00" d=" M 183.99 89.94 C 184.14 88.03 184.08 86.09 184.53 84.22 C 184.87 85.88 184.90 87.57 185.02 89.26 C 185.59 88.64 186.71 87.41 187.28 86.80 C 187.47 88.09 187.62 89.39 187.76 90.69 C 186.14 90.66 184.49 90.49 183.07 89.61 L 183.72 89.83 L 183.99 89.94 Z" />
<path fill="#4a3800" opacity="1.00" d=" M 7.51 88.73 C 13.88 88.40 20.81 89.95 25.35 94.71 C 27.39 96.74 28.62 100.22 26.79 102.76 C 24.55 105.77 20.45 106.41 16.95 106.33 C 10.28 105.98 2.89 103.07 0.00 96.59 L 0.00 93.73 C 0.63 92.70 1.33 91.73 2.10 90.81 C 10.42 91.42 18.32 94.78 25.35 99.15 C 20.89 93.49 13.85 91.44 7.51 88.73 Z" />
</g>
<g id="#ffe191ff">
<path fill="#ffe191" opacity="1.00" d=" M 68.30 46.09 C 76.61 42.18 87.44 44.80 92.94 52.19 C 93.28 52.71 93.96 53.76 94.29 54.28 C 90.58 54.47 86.59 54.69 83.48 56.97 C 81.54 58.08 80.37 60.12 80.41 62.37 C 79.35 62.74 78.26 63.05 77.17 63.29 C 76.67 63.26 75.69 63.20 75.19 63.17 L 76.78 62.77 C 71.83 58.38 65.39 54.87 58.56 56.21 C 59.02 55.22 59.51 54.23 60.01 53.26 C 62.16 50.26 64.89 47.59 68.30 46.09 Z" />
</g>
</svg>
