<?xml version="1.0" encoding="UTF-8" ?>
<!DOCTYPE svg PUBLIC "-//W3C//DTD SVG 1.1//EN" "http://www.w3.org/Graphics/SVG/1.1/DTD/svg11.dtd">
<svg width="231pt" height="140pt" viewBox="0 0 231 140" version="1.1" xmlns="http://www.w3.org/2000/svg">
<g id="#6e2e17ff">
<path fill="#6e2e17" opacity="1.00" d=" M 98.47 23.49 C 101.27 21.15 104.66 18.44 108.57 19.50 C 112.94 20.28 115.09 25.84 112.41 29.39 C 108.68 34.30 103.73 38.12 99.06 42.08 C 94.72 45.45 90.77 49.37 85.98 52.11 C 93.19 43.96 103.16 38.01 107.87 27.80 C 100.36 33.19 93.99 39.98 87.15 46.17 C 82.60 50.41 77.71 54.31 73.59 59.00 C 74.43 61.65 75.86 64.38 75.18 67.23 C 74.68 69.58 73.90 71.85 73.23 74.16 C 74.50 72.38 75.87 70.63 76.76 68.62 C 78.12 65.33 76.34 61.56 77.92 58.33 C 78.43 61.81 79.36 65.32 78.82 68.85 C 77.98 73.02 75.45 76.57 72.76 79.76 C 68.25 78.90 63.60 78.46 59.11 79.75 C 63.94 76.27 69.22 71.54 68.90 65.02 C 69.10 59.13 63.44 54.75 57.96 54.31 C 50.61 53.74 43.32 56.30 37.35 60.48 C 34.84 62.62 32.30 59.33 30.16 58.16 C 36.18 53.35 43.10 49.51 50.60 47.63 C 57.35 46.10 64.24 48.19 70.16 51.43 C 79.71 42.25 88.29 32.03 98.47 23.49 Z" />
</g>
<g id="#9f523dff">
<path fill="#9f523d" opacity="1.00" d=" M 87.15 46.17 C 93.99 39.98 100.36 33.19 107.87 27.80 C 103.16 38.01 93.19 43.96 85.98 52.11 C 83.75 54.72 80.80 56.53 77.92 58.33 C 76.34 61.56 78.12 65.33 76.76 68.62 C 75.87 70.63 74.50 72.38 73.23 74.16 C 73.90 71.85 74.68 69.58 75.18 67.23 C 75.86 64.38 74.43 61.65 73.59 59.00 C 77.71 54.31 82.60 50.41 87.15 46.17 Z" />
</g>
<g id="#401709ff">
<path fill="#401709" opacity="1.00" d=" M 125.17 39.33 C 129.77 39.64 134.32 40.50 138.92 40.97 C 138.88 42.73 139.31 44.67 138.29 46.25 C 135.58 46.86 132.70 45.98 129.93 46.14 C 129.06 50.30 128.81 54.54 128.11 58.72 C 131.27 58.26 134.46 57.99 137.62 57.45 C 138.43 58.40 139.24 59.36 140.07 60.31 C 141.78 53.46 142.06 46.39 142.59 39.39 C 147.93 39.54 153.20 40.62 158.55 40.48 C 159.12 48.20 160.33 55.95 160.12 63.69 C 154.42 64.11 148.65 64.23 143.07 65.59 C 141.87 64.09 140.68 62.59 139.45 61.11 C 139.19 61.68 138.67 62.82 138.41 63.39 C 133.69 63.85 128.98 64.52 124.36 65.63 C 123.18 63.79 120.81 62.04 121.61 59.60 C 122.98 53.20 123.44 46.68 123.90 40.19 C 124.22 39.98 124.85 39.55 125.17 39.33 M 148.33 46.23 C 147.60 50.38 147.32 54.57 146.98 58.76 C 149.27 58.45 151.57 58.23 153.87 58.06 C 153.78 54.05 153.34 50.06 152.82 46.09 C 151.32 46.15 149.82 46.19 148.33 46.23 Z" />
<path fill="#401709" opacity="1.00" d=" M 163.39 40.08 C 168.23 38.86 173.23 40.62 178.16 39.81 C 178.95 41.64 179.01 43.62 178.71 45.56 C 175.67 45.81 172.63 45.93 169.59 46.02 C 169.60 46.85 169.62 48.50 169.63 49.33 C 171.57 49.44 173.51 49.51 175.45 49.63 C 175.46 51.53 176.16 53.87 174.51 55.32 C 172.96 55.41 171.43 55.14 169.90 54.99 C 168.83 57.80 169.17 60.82 169.53 63.73 C 167.45 65.12 164.98 64.94 162.72 64.12 C 163.47 56.13 163.28 48.09 163.39 40.08 Z" />
<path fill="#401709" opacity="1.00" d=" M 180.73 39.82 C 185.53 39.13 190.34 40.61 195.14 39.80 C 196.23 41.58 196.26 43.62 195.74 45.60 C 192.57 45.75 189.41 45.97 186.24 46.18 C 186.48 47.21 186.71 48.25 186.94 49.29 C 188.51 49.37 190.09 49.37 191.66 49.53 C 193.46 50.96 192.56 53.38 192.16 55.23 C 190.25 55.22 188.34 55.22 186.44 55.36 C 186.29 58.30 186.33 61.25 186.42 64.20 C 184.27 64.92 182.02 64.93 179.90 64.09 C 180.67 56.02 180.15 47.91 180.73 39.82 Z" />
<path fill="#401709" opacity="1.00" d=" M 215.38 39.97 C 220.57 39.28 225.86 39.84 231.00 40.68 L 231.00 45.32 C 227.87 45.70 224.73 45.92 221.58 46.15 C 221.59 46.94 221.59 48.52 221.60 49.31 C 223.46 49.39 225.33 49.44 227.21 49.51 C 227.38 51.45 227.31 53.41 226.99 55.34 C 225.12 55.30 223.25 55.25 221.38 55.25 C 221.34 55.85 221.24 57.06 221.20 57.66 C 224.16 58.05 227.12 58.37 230.11 58.54 C 230.33 60.56 230.18 62.59 229.34 64.46 C 224.48 63.61 219.58 64.95 214.71 64.31 C 215.30 56.21 215.25 48.08 215.38 39.97 Z" />
<path fill="#401709" opacity="1.00" d=" M 197.84 39.81 C 202.88 39.44 207.93 40.15 212.98 40.24 C 213.19 42.05 213.12 43.86 212.82 45.65 C 209.79 45.76 206.77 45.92 203.75 46.10 C 203.77 46.91 203.81 48.52 203.83 49.33 C 205.72 49.43 207.62 49.49 209.52 49.59 C 209.84 51.52 209.83 53.47 209.20 55.34 C 207.51 55.26 205.82 55.17 204.13 55.11 C 203.79 55.93 203.45 56.75 203.12 57.58 C 206.23 58.03 209.36 58.42 212.50 58.63 C 212.69 60.52 212.59 62.41 212.16 64.26 C 208.36 63.93 204.54 64.00 200.77 64.63 C 199.42 64.78 196.84 64.98 197.23 62.85 C 197.54 55.17 197.41 47.48 197.84 39.81 Z" />
<path fill="#401709" opacity="1.00" d=" M 153.01 73.14 C 156.07 74.53 159.18 75.83 162.29 77.13 C 162.46 79.83 160.97 81.89 159.48 83.94 C 160.42 86.09 161.67 88.09 162.86 90.10 C 161.71 90.87 160.50 91.54 159.26 92.13 C 158.04 90.01 157.38 87.35 155.16 86.01 C 154.78 87.75 154.58 89.53 154.19 91.27 C 153.18 92.30 151.51 91.67 150.23 91.92 C 150.23 86.39 150.11 80.85 150.50 75.33 C 151.20 74.46 152.15 73.84 153.01 73.14 M 155.01 79.20 C 154.48 80.83 155.04 81.37 156.69 80.83 C 157.21 79.22 156.64 78.68 155.01 79.20 Z" />
</g>
<g id="#6d2e17ff">
<path fill="#6d2e17" opacity="1.00" d=" M 8.67 55.65 C 11.30 54.52 14.16 55.72 16.79 56.25 C 22.58 57.91 28.81 58.65 33.96 61.99 C 37.12 63.99 38.80 67.44 40.31 70.71 C 45.72 67.63 51.89 66.15 57.99 65.21 C 60.28 64.73 61.60 66.98 61.47 69.00 C 61.05 73.09 59.70 77.65 55.93 79.87 C 50.97 82.66 44.76 81.73 40.00 78.95 C 40.50 78.41 41.50 77.32 42.00 76.78 C 47.86 75.12 54.78 73.83 58.18 68.15 C 51.66 69.32 44.72 71.05 39.74 75.68 C 38.94 76.29 38.06 76.78 37.11 77.14 C 37.65 75.44 38.32 73.79 39.01 72.15 C 38.09 71.46 37.03 70.93 36.29 70.04 C 35.48 69.01 34.72 67.94 33.86 66.95 C 30.78 63.79 26.02 63.70 22.25 61.74 C 18.45 59.77 14.24 58.82 9.96 58.98 C 10.10 59.63 10.36 60.92 10.49 61.57 C 15.36 64.34 19.44 68.72 25.07 69.94 C 28.37 70.70 31.71 71.27 35.02 72.01 L 35.81 72.18 C 35.79 72.81 35.75 74.06 35.73 74.69 C 33.61 75.64 31.51 76.73 29.19 77.05 C 27.10 76.90 25.00 76.71 22.91 76.54 C 24.94 75.86 26.97 75.19 29.02 74.57 C 22.52 74.57 16.38 72.06 10.87 68.79 C 9.32 67.81 8.10 66.42 6.96 65.00 C 6.20 61.91 5.56 57.70 8.67 55.65 M 44.70 79.92 C 49.72 81.30 54.91 79.27 57.92 75.11 C 53.71 77.27 48.60 77.23 44.70 79.92 Z" />
<path fill="#6d2e17" opacity="1.00" d=" M 40.99 87.01 C 46.73 82.66 54.33 83.00 61.14 82.18 C 64.97 81.97 68.96 80.87 72.72 82.04 C 76.67 84.12 75.82 89.67 74.08 92.99 C 72.59 94.31 71.02 95.54 69.40 96.71 C 66.14 97.53 63.03 98.82 59.79 99.72 C 55.62 100.61 51.33 100.22 47.10 100.25 C 48.08 101.13 49.06 102.02 50.03 102.92 C 48.65 102.96 47.27 103.00 45.90 103.02 C 43.19 102.16 40.87 100.35 39.19 98.08 C 40.31 97.22 41.14 95.34 42.80 95.61 C 46.80 95.85 50.84 96.28 54.84 95.76 C 58.40 95.32 61.30 93.04 64.50 91.61 C 67.29 90.36 70.15 89.15 72.45 87.08 C 67.23 84.97 61.50 85.41 56.24 87.11 C 51.48 88.67 45.35 87.25 41.99 91.79 C 41.23 92.56 40.49 93.34 39.77 94.14 C 38.77 95.37 36.93 94.85 35.58 95.16 C 35.99 91.77 38.62 89.23 40.99 87.01 Z" />
</g>
<g id="#3d1708fd">
<path fill="#3d1708" opacity="1.00" d=" M 9.96 58.98 C 14.24 58.82 18.45 59.77 22.25 61.74 C 26.02 63.70 30.78 63.79 33.86 66.95 C 26.96 64.59 19.81 62.96 12.78 61.00 C 18.31 66.14 25.80 68.02 32.84 70.12 C 33.58 70.72 34.31 71.35 35.02 72.01 C 31.71 71.27 28.37 70.70 25.07 69.94 C 19.44 68.72 15.36 64.34 10.49 61.57 C 10.36 60.92 10.10 59.63 9.96 58.98 Z" />
</g>
<g id="#020100ff">
<path fill="#020100" opacity="1.00" d=" M 12.78 61.00 C 19.81 62.96 26.96 64.59 33.86 66.95 C 34.72 67.94 35.48 69.01 36.29 70.04 C 35.42 70.06 33.70 70.10 32.84 70.12 C 25.80 68.02 18.31 66.14 12.78 61.00 Z" />
<path fill="#020100" opacity="1.00" d=" M 5.73 81.73 C 11.26 82.59 16.37 85.07 21.89 86.00 C 25.81 86.52 28.53 89.54 31.37 91.97 C 29.20 91.55 27.03 91.12 24.87 90.67 C 17.81 89.53 11.08 86.50 5.73 81.73 Z" />
<path fill="#020100" opacity="1.00" d=" M 59.80 88.83 C 62.89 88.15 66.01 87.54 69.17 87.26 C 62.44 91.85 54.24 93.67 46.23 94.38 C 44.07 94.42 41.92 94.32 39.77 94.14 C 40.49 93.34 41.23 92.56 41.99 91.79 C 47.47 88.68 53.91 90.26 59.80 88.83 Z" />
<path fill="#020100" opacity="1.00" d=" M 15.22 107.09 C 20.67 106.06 25.65 103.38 31.15 102.62 C 30.23 103.85 29.37 105.24 27.96 105.97 C 22.70 108.82 17.04 110.95 11.19 112.19 C 9.36 112.50 7.51 112.72 5.66 112.89 C 8.55 110.52 11.38 107.73 15.22 107.09 Z" />
</g>
<g id="#4d1e0cff">
<path fill="#4d1e0c" opacity="1.00" d=" M 6.96 65.00 C 8.10 66.42 9.32 67.81 10.87 68.79 C 16.38 72.06 22.52 74.57 29.02 74.57 C 26.97 75.19 24.94 75.86 22.91 76.54 C 25.00 76.71 27.10 76.90 29.19 77.05 C 26.02 78.35 22.50 77.91 19.18 77.63 C 12.84 76.86 7.68 71.29 6.96 65.00 Z" />
</g>
<g id="#070301ff">
<path fill="#070301" opacity="1.00" d=" M 39.74 75.68 C 44.72 71.05 51.66 69.32 58.18 68.15 C 54.78 73.83 47.86 75.12 42.00 76.78 C 41.43 76.51 40.31 75.96 39.74 75.68 Z" />
</g>
<g id="#401709fe">
<path fill="#401709" opacity="1.00" d=" M 122.32 74.17 C 126.41 72.06 130.26 75.88 134.04 77.12 C 134.29 81.30 130.74 83.51 127.86 85.80 C 125.78 87.07 126.12 89.75 125.61 91.82 C 124.28 91.71 122.97 91.60 121.65 91.48 C 121.90 85.71 121.74 79.92 122.32 74.17 M 126.25 78.13 C 126.24 79.37 126.24 80.61 126.24 81.85 C 127.23 81.18 128.23 80.52 129.23 79.85 C 128.23 79.27 127.24 78.70 126.25 78.13 Z" />
<path fill="#401709" opacity="1.00" d=" M 135.84 73.80 C 139.60 74.04 143.35 74.41 147.10 74.80 C 147.52 79.93 147.82 85.07 148.58 90.17 C 144.81 91.38 140.78 91.31 136.88 91.75 C 135.16 91.99 134.05 89.80 134.28 88.32 C 134.84 83.48 135.60 78.67 135.84 73.80 M 140.16 78.37 C 139.41 81.27 139.07 84.26 138.85 87.24 C 140.51 87.10 142.17 86.96 143.83 86.82 C 143.68 83.97 143.36 81.13 142.79 78.34 C 142.13 78.35 140.82 78.36 140.16 78.37 Z" />
</g>
<g id="#381406e6">
<path fill="#381406" opacity="0.90" d=" M 73.87 80.90 C 75.55 78.39 77.33 75.95 79.24 73.61 C 79.54 76.94 78.39 80.07 76.76 82.91 C 75.79 82.25 74.83 81.57 73.87 80.90 Z" />
</g>
<g id="#3f1709fd">
<path fill="#3f1709" opacity="1.00" d=" M 162.64 73.88 C 166.41 73.84 170.17 73.93 173.93 74.24 C 173.89 75.35 173.86 76.47 173.83 77.58 C 172.67 77.86 171.52 78.14 170.38 78.41 C 170.39 82.88 170.69 87.38 169.93 91.80 C 168.56 91.59 167.20 91.38 165.84 91.14 C 166.16 86.87 166.16 82.58 166.14 78.30 C 165.25 78.21 163.46 78.03 162.57 77.94 C 162.58 76.59 162.60 75.23 162.64 73.88 Z" />
</g>
<g id="#833e29ff">
<path fill="#833e29" opacity="1.00" d=" M 44.70 79.92 C 48.60 77.23 53.71 77.27 57.92 75.11 C 54.91 79.27 49.72 81.30 44.70 79.92 Z" />
</g>
<g id="#6c2d16ff">
<path fill="#6c2d16" opacity="1.00" d=" M 0.00 78.94 C 1.58 77.48 3.37 75.70 5.74 76.41 C 12.10 77.69 18.52 79.09 24.59 81.45 C 29.30 83.25 32.41 87.62 33.56 92.42 C 33.01 92.30 31.92 92.08 31.37 91.97 C 28.53 89.54 25.81 86.52 21.89 86.00 C 16.37 85.07 11.26 82.59 5.73 81.73 C 11.08 86.50 17.81 89.53 24.87 90.67 C 26.57 91.75 29.30 92.65 29.50 94.95 C 23.45 100.21 13.52 100.47 6.87 96.09 C 2.57 93.32 1.00 88.20 0.00 83.47 L 0.00 78.94 M 7.79 91.96 C 10.32 97.52 17.16 96.89 22.23 96.70 C 22.01 96.40 21.58 95.81 21.36 95.51 C 16.87 94.26 12.23 93.47 7.79 91.96 Z" />
<path fill="#6c2d16" opacity="1.00" d=" M 27.33 98.21 C 29.98 97.73 33.22 96.43 35.55 98.41 C 37.97 101.01 36.79 104.86 36.20 107.94 C 35.29 108.53 34.39 109.13 33.48 109.74 C 29.36 111.43 25.67 114.24 21.21 115.05 C 19.00 115.49 16.76 115.76 14.53 116.06 C 14.58 116.65 14.68 117.83 14.73 118.42 C 14.01 118.43 12.57 118.46 11.85 118.47 C 9.91 117.95 8.19 116.81 7.15 115.07 C 8.45 114.05 9.75 113.01 11.19 112.19 C 17.04 110.95 22.70 108.82 27.96 105.97 C 29.37 105.24 30.23 103.85 31.15 102.62 C 25.65 103.38 20.67 106.06 15.22 107.09 C 11.38 107.73 8.55 110.52 5.66 112.89 C 5.18 113.06 4.21 113.40 3.72 113.57 C 4.54 109.51 6.71 105.50 10.41 103.40 C 15.56 100.35 21.66 99.79 27.33 98.21 Z" />
</g>
<g id="#0a04012b">
<path fill="#0a0401" opacity="0.17" d=" M 155.01 79.20 C 156.64 78.68 157.21 79.22 156.69 80.83 C 155.04 81.37 154.48 80.83 155.01 79.20 Z" />
</g>
<g id="#3e1708ff">
<path fill="#3e1708" opacity="1.00" d=" M 56.24 87.11 C 61.50 85.41 67.23 84.97 72.45 87.08 C 70.15 89.15 67.29 90.36 64.50 91.61 C 61.30 93.04 58.40 95.32 54.84 95.76 C 50.84 96.28 46.80 95.85 42.80 95.61 C 43.93 95.16 45.06 94.70 46.23 94.38 C 54.24 93.67 62.44 91.85 69.17 87.26 C 66.01 87.54 62.89 88.15 59.80 88.83 C 53.91 90.26 47.47 88.68 41.99 91.79 C 45.35 87.25 51.48 88.67 56.24 87.11 Z" />
</g>
<g id="#994e39ff">
<path fill="#994e39" opacity="1.00" d=" M 7.79 91.96 C 12.23 93.47 16.87 94.26 21.36 95.51 C 21.58 95.81 22.01 96.40 22.23 96.70 C 17.16 96.89 10.32 97.52 7.79 91.96 Z" />
</g>
<g id="#421808fe">
<path fill="#421808" opacity="1.00" d=" M 69.40 96.71 C 71.02 95.54 72.59 94.31 74.08 92.99 C 72.50 99.29 67.02 104.34 60.62 105.40 C 55.64 106.18 50.29 105.60 45.90 103.02 C 47.27 103.00 48.65 102.96 50.03 102.92 C 54.15 102.75 58.45 102.94 62.33 101.31 C 64.97 100.25 67.17 98.42 69.40 96.71 Z" />
</g>
<g id="#9e523dff">
<path fill="#9e523d" opacity="1.00" d=" M 59.79 99.72 C 63.03 98.82 66.14 97.53 69.40 96.71 C 67.17 98.42 64.97 100.25 62.33 101.31 C 58.45 102.94 54.15 102.75 50.03 102.92 C 49.06 102.02 48.08 101.13 47.10 100.25 C 51.33 100.22 55.62 100.61 59.79 99.72 Z" />
</g>
<g id="#421908fe">
<path fill="#421908" opacity="1.00" d=" M 33.48 109.74 C 34.39 109.13 35.29 108.53 36.20 107.94 C 35.36 110.86 34.19 113.80 31.88 115.88 C 26.66 120.97 18.28 121.25 11.85 118.47 C 12.57 118.46 14.01 118.43 14.73 118.42 C 21.98 118.66 29.19 115.71 33.48 109.74 Z" />
</g>
<g id="#8d4530ff">
<path fill="#8d4530" opacity="1.00" d=" M 21.21 115.05 C 25.67 114.24 29.36 111.43 33.48 109.74 C 29.19 115.71 21.98 118.66 14.73 118.42 C 14.68 117.83 14.58 116.65 14.53 116.06 C 16.76 115.76 19.00 115.49 21.21 115.05 Z" />
</g>
</svg>
