<?xml version="1.0" standalone="no"?>
<!DOCTYPE svg PUBLIC "-//W3C//DTD SVG 20010904//EN"
 "http://www.w3.org/TR/2001/REC-SVG-20010904/DTD/svg10.dtd">
<svg version="1.0" xmlns="http://www.w3.org/2000/svg"
 width="1660.000000pt" height="1660.000000pt" viewBox="0 0 1660.000000 1660.000000"
 preserveAspectRatio="xMidYMid meet">
<metadata>
Created by potrace 1.11, written by Peter Selinger 2001-2013
</metadata>
<g transform="translate(0.000000,1660.000000) scale(0.100000,-0.100000)"
fill="#000000" stroke="none">
<path d="M9038 14325 c-2 -2 -46 -6 -99 -9 -52 -4 -106 -8 -120 -10 -13 -3
-51 -7 -84 -11 -32 -4 -68 -9 -80 -11 -11 -2 -36 -7 -55 -10 -91 -13 -194 -53
-178 -69 2 -2 57 -7 123 -10 193 -9 235 -15 420 -55 132 -28 114 -23 250 -65
264 -81 591 -231 870 -400 174 -105 478 -320 624 -440 101 -83 196 -165 290
-249 85 -75 487 -481 561 -565 36 -41 70 -79 76 -85 18 -19 184 -217 251 -300
44 -54 236 -309 274 -364 24 -35 53 -76 64 -92 11 -15 48 -70 82 -121 34 -52
66 -98 70 -104 5 -5 12 -17 16 -25 4 -8 15 -27 25 -42 9 -14 50 -82 91 -150
40 -67 79 -132 86 -143 7 -11 13 -24 14 -30 1 -5 8 -17 14 -25 41 -51 223
-424 315 -641 92 -217 224 -654 209 -692 -3 -8 -27 -20 -54 -27 -104 -26 -155
-31 -313 -30 -80 0 -158 2 -175 4 -16 2 -66 7 -110 11 -44 4 -82 9 -85 10 -3
2 -37 6 -75 10 -39 4 -73 9 -76 11 -3 1 -28 6 -55 9 -27 4 -56 8 -64 10 -8 2
-31 7 -50 10 -19 3 -75 15 -125 26 -49 11 -101 22 -114 25 -60 12 -261 83
-426 149 -495 200 -1301 603 -1623 811 -144 94 -213 114 -457 131 -119 9 -620
8 -865 -1 -107 -4 -262 -9 -345 -12 -211 -6 -276 -23 -385 -97 -86 -59 -219
-211 -307 -351 -32 -51 -183 -310 -231 -396 -64 -116 -98 -176 -107 -192 -5
-9 -27 -46 -48 -83 -49 -87 -200 -319 -209 -323 -5 -2 -8 -10 -8 -18 0 -8 -3
-14 -8 -14 -4 0 -12 -8 -19 -18 -8 -15 -8 -35 3 -85 30 -145 125 -228 259
-228 253 1 718 261 1020 570 200 205 371 275 675 275 125 0 263 -9 280 -19 3
-2 27 -6 54 -9 27 -4 52 -9 55 -11 3 -1 22 -6 43 -9 167 -26 402 -175 723
-456 303 -265 766 -734 1195 -1210 47 -51 110 -120 140 -153 30 -32 61 -67 70
-76 41 -48 136 -155 147 -166 7 -7 46 -51 86 -97 41 -47 88 -100 105 -119 17
-19 39 -43 49 -55 10 -12 46 -52 80 -90 34 -38 71 -80 83 -94 213 -249 400
-437 533 -536 120 -90 176 -124 387 -232 91 -46 167 -86 170 -89 2 -2 -7 -25
-21 -51 -22 -40 -230 -396 -259 -442 -192 -309 -255 -408 -367 -575 -189 -282
-493 -710 -523 -735 -3 -3 -28 -34 -55 -70 -28 -36 -55 -72 -62 -80 -100 -125
-149 -186 -153 -190 -3 -3 -39 -45 -80 -95 -41 -49 -77 -92 -80 -95 -3 -3 -41
-45 -84 -95 -187 -213 -451 -486 -642 -665 -45 -41 -105 -98 -135 -125 -63
-59 -346 -297 -404 -340 -22 -17 -42 -32 -45 -35 -16 -17 -343 -254 -400 -290
-8 -5 -38 -25 -66 -43 -384 -253 -835 -472 -1259 -613 -88 -29 -153 -55 -145
-57 13 -4 42 -11 150 -32 14 -3 41 -8 60 -11 19 -2 46 -7 60 -9 158 -28 309
-39 565 -39 198 0 428 9 458 19 7 2 44 6 82 10 39 3 81 7 95 10 14 2 61 9 105
15 79 12 95 15 145 25 14 2 39 7 55 10 128 20 447 98 610 147 39 12 75 22 80
24 24 5 365 123 390 134 11 6 61 25 110 44 332 126 719 316 1095 539 406 240
786 517 1165 846 210 183 569 549 745 760 25 29 50 59 55 65 17 19 148 186
214 274 61 81 263 378 311 457 155 257 327 589 419 810 23 55 46 109 51 120
77 174 205 585 265 855 22 98 44 203 49 235 6 36 12 72 22 129 2 11 8 56 14
100 6 45 13 97 16 116 9 65 17 154 30 352 13 192 6 687 -10 788 -3 14 -7 62
-11 107 -3 45 -7 90 -9 100 -2 10 -7 43 -10 73 -4 30 -8 66 -11 80 -2 14 -9
61 -15 105 -31 215 -107 549 -185 818 -57 196 -140 450 -175 532 -4 11 -29 73
-54 138 -92 234 -245 561 -350 745 -20 35 -36 65 -36 67 0 2 -43 74 -95 161
-185 305 -389 581 -634 859 -137 155 -447 449 -646 611 -460 377 -1084 725
-1710 952 -274 99 -648 206 -900 256 -174 35 -179 36 -275 52 -14 3 -47 9 -75
14 -27 5 -71 11 -96 15 -25 3 -57 8 -70 10 -26 4 -94 12 -174 21 -27 2 -63 7
-80 9 -16 2 -66 6 -110 10 -44 3 -105 8 -135 11 -55 5 -697 13 -702 9z"/>
<path d="M3045 12663 c-52 -5 -219 -25 -235 -29 -21 -5 -133 -34 -145 -38 -5
-1 -30 -8 -54 -15 -50 -14 -218 -85 -271 -114 -99 -54 -152 -86 -225 -136 -44
-30 -82 -57 -85 -60 -3 -4 -25 -22 -50 -41 -58 -45 -123 -105 -226 -210 -119
-122 -113 -115 -322 -395 -4 -5 -33 -50 -63 -100 -149 -238 -272 -498 -369
-780 -43 -125 -105 -336 -115 -392 -3 -18 -9 -43 -14 -56 -5 -13 -12 -40 -15
-60 -3 -20 -10 -56 -15 -79 -5 -24 -12 -59 -15 -78 -3 -19 -8 -46 -11 -60 -11
-54 -45 -320 -50 -395 -3 -44 -8 -109 -11 -145 -13 -137 -6 -567 11 -740 2
-19 6 -65 9 -101 4 -36 8 -76 11 -90 2 -13 6 -46 10 -74 3 -27 8 -59 10 -70 3
-11 7 -37 10 -58 4 -32 48 -250 59 -297 2 -8 7 -28 11 -45 106 -444 307 -909
547 -1268 126 -188 332 -423 477 -545 31 -26 67 -57 81 -70 51 -46 265 -184
369 -235 151 -76 343 -142 475 -163 21 -3 47 -7 57 -9 87 -17 295 -23 404 -11
120 13 159 20 276 50 307 80 600 249 866 500 54 50 107 103 120 117 12 14 38
43 57 65 67 72 232 298 304 414 65 103 199 361 250 480 33 75 79 198 121 319
l39 115 57 -3 c31 -1 64 -4 74 -5 9 -2 39 -6 66 -10 190 -26 345 -130 451
-302 95 -155 120 -188 156 -206 136 -70 373 16 776 279 142 92 176 109 254
129 121 31 246 15 376 -49 48 -23 91 -56 152 -117 98 -98 151 -188 178 -306
l18 -74 59 46 c90 70 219 152 299 189 204 94 365 112 562 62 6 -1 40 -17 75
-34 148 -74 268 -213 324 -378 28 -81 37 -172 22 -226 -6 -25 -4 -27 39 -38
167 -42 252 -165 289 -416 7 -47 8 -248 1 -285 -3 -14 -7 -56 -11 -94 -3 -38
-8 -72 -9 -75 -2 -3 -7 -28 -10 -55 -19 -139 -110 -438 -173 -565 -30 -61 -37
-89 -41 -152 -4 -67 -1 -84 21 -132 42 -92 137 -175 280 -242 183 -87 365 -63
494 65 50 49 58 87 38 178 -39 174 -10 196 130 102 39 -26 88 -57 110 -68 64
-32 175 -62 240 -65 54 -3 81 0 165 17 74 16 171 85 212 151 23 39 23 102 -1
140 -25 41 -99 115 -201 204 -113 98 -127 110 -180 151 -25 19 -47 37 -50 40
-3 3 -63 53 -135 112 -71 59 -145 122 -164 141 -50 53 -31 64 42 25 34 -18 64
-35 67 -39 3 -3 10 -8 15 -10 6 -2 109 -69 230 -149 480 -318 633 -384 885
-384 121 -1 159 4 226 28 191 67 271 195 204 326 -29 57 -217 243 -515 510
-27 25 -72 66 -100 92 -27 25 -61 56 -75 68 -14 12 -65 58 -114 103 -49 45
-98 90 -110 100 -68 59 -314 286 -430 397 -238 227 -376 378 -376 412 0 45
163 -78 435 -327 50 -46 104 -95 120 -110 17 -15 82 -76 145 -135 63 -59 142
-131 175 -161 33 -30 87 -79 120 -110 110 -102 319 -283 415 -361 279 -223
414 -289 595 -289 178 0 334 83 404 216 31 59 29 138 -6 184 -32 43 -214 224
-414 411 -244 229 -325 308 -538 521 -201 200 -256 258 -431 451 -154 169
-232 250 -475 493 -298 298 -433 425 -700 660 -55 48 -113 99 -130 114 -16 15
-64 53 -105 86 -41 33 -77 62 -80 65 -9 10 -185 146 -220 170 -19 13 -37 27
-40 31 -4 5 -154 105 -265 177 -61 39 -249 123 -304 136 -76 18 -200 14 -286
-9 -129 -34 -329 -149 -507 -292 -40 -32 -145 -116 -234 -188 -251 -202 -347
-268 -493 -339 -73 -35 -142 -62 -186 -72 -268 -58 -486 20 -622 224 -32 49
-38 66 -39 118 -3 86 58 358 106 469 4 11 18 49 31 85 121 348 374 848 495
978 13 15 24 30 24 33 0 4 -20 12 -45 19 -42 12 -195 9 -310 -5 -142 -18 -371
-53 -425 -65 -25 -5 -58 -12 -75 -15 -36 -7 -161 -7 -195 0 -14 3 -63 12 -110
21 -47 8 -94 18 -105 21 -11 4 -26 8 -32 9 -19 3 -145 43 -168 53 -11 5 -55
24 -99 42 -137 57 -294 156 -417 261 -15 13 -45 66 -69 122 -186 440 -465 838
-781 1116 -135 119 -185 156 -319 239 -215 132 -502 231 -740 257 -68 7 -223
11 -275 7z m122 -355 c12 -13 48 -66 82 -118 33 -52 65 -99 69 -105 18 -23
132 -228 184 -330 83 -167 170 -393 213 -555 3 -14 11 -41 16 -60 21 -81 44
-199 54 -286 4 -33 10 -68 12 -79 12 -49 10 -447 -2 -545 -14 -119 -18 -144
-40 -255 -12 -58 -11 -54 -35 -146 -59 -230 -136 -423 -290 -727 -61 -120
-110 -221 -110 -225 0 -4 -9 -26 -19 -50 -34 -73 -97 -267 -134 -412 -39 -152
-38 -144 -68 -320 -26 -152 -25 -145 -44 -315 -5 -41 -16 -169 -21 -244 -4
-62 -4 -595 1 -651 1 -22 6 -80 9 -130 3 -49 8 -106 11 -125 2 -19 7 -60 10
-90 7 -63 32 -243 40 -280 3 -14 8 -38 10 -53 3 -15 12 -56 20 -90 12 -51 12
-64 1 -75 -21 -21 -43 -4 -115 92 -220 294 -393 682 -480 1076 -35 160 -42
204 -67 415 -8 75 -9 390 0 470 3 33 9 85 12 115 3 30 9 78 14 105 5 28 11 64
14 80 23 150 116 473 176 610 63 143 109 244 140 310 99 211 237 589 286 784
2 9 15 60 28 114 14 54 27 110 30 125 9 48 16 86 23 117 3 17 7 39 9 50 1 11
7 49 13 85 6 36 13 88 16 115 3 28 8 61 10 75 11 61 20 250 20 425 0 375 -37
643 -132 972 -29 100 -33 126 -23 138 17 21 33 19 57 -7z"/>
<path d="M5283 7378 c-134 -66 100 -522 341 -667 103 -62 213 -73 297 -31 52
27 129 108 159 167 38 75 35 169 -8 254 -34 67 -101 146 -163 192 -61 46 -111
55 -282 51 -133 -3 -164 -1 -223 17 -38 11 -76 22 -84 24 -8 2 -25 -1 -37 -7z"/>
<path d="M7237 7384 c-1 -1 -18 -5 -37 -8 -19 -3 -60 -13 -90 -23 -30 -9 -57
-17 -61 -17 -11 -2 -165 -78 -194 -97 -16 -10 -37 -22 -45 -26 -40 -18 -341
-236 -381 -275 -8 -8 -25 -21 -38 -31 -58 -40 -187 -178 -240 -257 -89 -133
-120 -223 -126 -362 -4 -106 21 -196 77 -282 77 -117 292 -186 467 -150 141
29 282 121 476 309 61 59 151 143 200 188 407 368 534 602 435 804 -49 99
-173 192 -290 218 -31 7 -148 14 -153 9z"/>
<path d="M8420 7257 c-190 -68 -403 -271 -725 -687 -122 -157 -209 -263 -281
-340 -150 -160 -223 -258 -279 -375 -69 -142 -78 -248 -31 -351 33 -72 79
-129 130 -162 106 -68 171 -92 258 -93 155 -3 312 109 555 396 122 143 129
152 355 386 278 290 414 461 479 604 91 202 68 374 -71 519 -81 85 -149 118
-249 123 -61 3 -89 -1 -141 -20z"/>
<path d="M9017 6435 c-79 -20 -164 -80 -287 -205 -148 -149 -233 -252 -468
-570 -198 -268 -289 -386 -318 -415 -34 -34 -35 -76 -3 -161 54 -144 165 -249
314 -297 79 -26 103 -29 225 -31 132 -3 210 11 247 45 65 60 217 331 307 549
15 36 31 74 36 85 35 81 124 364 136 432 3 15 9 44 14 63 15 61 24 152 24 245
-1 118 -22 183 -75 229 -46 39 -88 47 -152 31z"/>
</g>
</svg>
