<svg xmlns="http://www.w3.org/2000/svg" viewBox="0 0 772.49 672"><defs><style>.cls-1{fill:#f9b934;}.cls-2{fill:#707070;}</style></defs><title>coffee-port-logo-svg</title><g id="drawing"><path class="cls-1" d="M380.47,648.87C489.38,617.1,568.62,504.25,610.94,428.66c-8.64-5.08-22.06-9.65-35.76-23-18.4-17.87-109.87-130.45-142.87-138.56s-47.65,1.08-55.22,9.74c-6.22,7.12-30.34,26.65-49,28-6.13.45-11.53-4.09-12.74-10.12l-.8-3.94c23.82-32.46,33.83-71.85,58.73-72.39s73.06-3.78,81.72,3.25,76.85,42.77,103.38,48.72c21.61,4.86,50.07,8.62,61,3.11-14.87-79.77-126.49-222-227.36-220.7-2.17-9.38,264.12-39,334.11,212.89S522.56,684.25,380.47,648.87Z"/><path class="cls-1" d="M243.05,379.71c13,6.13,21.29-2.17,29.95,5.77s12.26,17.68,1.44,26.7S247,407.49,240.16,388C238,380.43,243.05,379.71,243.05,379.71Z"/><path class="cls-1" d="M283.46,449c-10-10-9.74-29.22,11.91-46.54s42.93-31.39,58.45-15.52-14.43,38.61-23.45,47.27S304.75,463.06,283.46,449Z"/><path class="cls-1" d="M334,477.13c-11.55-11.19-6.86-24.18,10.1-41.86s44.38-66.75,66.39-44.74-17.68,49.79-36.08,72.53S346.6,485.79,334,477.13Z"/><path class="cls-1" d="M370.33,481.94c19.48-25.38,46.27-67.32,58.45-54.33s-16,75.77-24.08,77.66-25.17,2.17-32.75-9.74S370.33,481.94,370.33,481.94Z"/><path class="cls-2" d="M593.7,433.72c-9.7-11.37-38-34.54-66.13-65.91s-87.68-87.68-111.5-92.93-44.39,23.65-68.73,37.73-38.45,2.67-44.13-7,20.3-69.83,31.11-79c-4.45-3.35-24.84.22-44.34,3.65h-.09c-1.78,0-30.31-1-52.19-21.07-19.92-49.44-56.81-82.59-99-82.59-63.38,0-114.81,74.87-114.81,167.21S75.28,460.91,138.66,460.91c46.77,0,87-40.7,104.89-99.12,24.17-.09,29.13,11.28,35.24,21.71,6.82,11.74,27.77-1.28,45.06-12.77s40.07,2.12,42.61,22.9c45.11-38.07,69.28,2.67,64.23,17.76,27.39,2.5,13.71,58.14,6.37,71.85-6.31,11.79,1,20.48,14.29,26.16s25.25-4.53,24.2-9.29c-1.45-6.59-3.73-14.31,3.86-9.43,21.62,16.74,40.16,2.09,37.4-5.63s-40.12-33.38-37.4-35,21.4,14.29,40.73,24.13C546.23,487.48,571,473,559.2,459.52c-11.56-13.19-83.06-73.61-80.64-78.27s53.59,49.35,78.22,65.84S601.24,442.56,593.7,433.72ZM152.32,298.32C125.69,347.37,133,420.21,139.09,443a1.51,1.51,0,0,1-2.59,1.4c-13.48-14.63-51.09-77.2-15-152.37,41.33-86,15-146.06,15.09-147.76a2.39,2.39,0,0,1,1.36-1.65,1.51,1.51,0,0,1,1.86.51C176.27,193.81,181.06,245.41,152.32,298.32Z"/></g></svg>