<svg id="Capa_1" enable-background="new 0 0 512 512" height="60" viewBox="0 0 512 512" width="60" xmlns="http://www.w3.org/2000/svg"><g><g><path d="m417.301 98.862-95.748-76.006c-18.645-14.801-41.748-22.856-65.553-22.856-23.804 0-46.908 8.055-65.553 22.856l-95.748 76.006z" fill="#986b54"/></g><g><path d="m321.553 22.856c-18.644-14.801-41.748-22.856-65.553-22.856-7.918 0-15.753.911-23.378 2.645 15.298 3.48 29.732 10.333 42.175 20.211l95.748 76.006h46.755z" fill="#845c47"/></g><g><path d="m476.749 470.811c-10.288-13.889-16.487-30.38-17.895-47.607l-19.7-241.09h-366.308l-19.7 241.09c-1.408 17.228-7.606 33.718-17.895 47.607-3.294 4.447-5.072 9.835-5.072 15.369 0 14.26 11.56 25.82 25.82 25.82h400.002c14.26 0 25.82-11.56 25.82-25.82 0-5.534-1.778-10.922-5.072-15.369z" fill="#d8aa8b"/></g><g><path d="m476.749 470.811c-10.289-13.889-16.487-30.38-17.895-47.607l-19.7-241.09h-366.308l-2.381 29.138h322.714c10.837 0 19.861 8.316 20.744 19.118l15.757 192.834c1.408 17.227 7.606 33.718 17.894 47.607 3.294 4.447 5.072 9.835 5.072 15.369 0 14.26-11.56 25.82-25.82 25.82h29.175c14.26 0 25.82-11.56 25.82-25.82 0-5.534-1.778-10.922-5.072-15.369z" fill="#ce9875"/></g><g><path d="m439.154 182.114h-366.308c-11.495 0-20.813-9.318-20.813-20.813v-41.626c0-11.495 9.318-20.813 20.813-20.813h366.309c11.495 0 20.813 9.318 20.813 20.813v41.626c-.001 11.495-9.319 20.813-20.814 20.813z" fill="#d8aa8b"/></g><g><path d="m439.154 98.862h-26.016c11.495 0 20.813 9.318 20.813 20.813v41.626c0 11.495-9.318 20.813-20.813 20.813h26.016c11.495 0 20.813-9.318 20.813-20.813v-41.626c0-11.495-9.318-20.813-20.813-20.813z" fill="#ce9875"/></g><g><g><circle cx="256" cy="355.902" fill="#f4fbff" r="104.065"/></g><g><g><ellipse cx="256" cy="355.902" fill="#986b54" rx="66.602" ry="49.951" transform="matrix(.707 -.707 .707 .707 -176.68 285.261)"/></g><g><path d="m312.353 323.736c-2.469 14.395-10.165 29.413-22.668 41.917-26.01 26.01-62.908 31.281-82.415 11.774-4.248-4.248-7.319-9.322-9.259-14.928-2.667 15.549.765 30.369 10.895 40.499 19.507 19.507 56.406 14.236 82.415-11.774 20.345-20.346 27.999-47.353 21.032-67.488z" fill="#845c47"/></g></g></g><g><path d="m230.268 386.418c-1.977 0-3.955-.754-5.463-2.263-3.018-3.017-3.018-7.909-.001-10.927 3.954-3.953 7.561-4.836 9.95-5.421 1.523-.373 1.798-.44 2.694-1.337.898-.898.966-1.173 1.339-2.698.585-2.388 1.468-5.996 5.422-9.95 3.954-3.953 7.562-4.837 9.95-5.421 1.524-.373 1.798-.44 2.695-1.338.9-.9.968-1.175 1.342-2.701.585-2.388 1.469-5.996 5.424-9.951 3.954-3.954 7.561-4.838 9.95-5.423 1.525-.374 1.801-.441 2.7-1.341 3.018-3.017 7.909-3.017 10.928 0 3.017 3.017 3.017 7.909 0 10.927-3.955 3.954-7.562 4.839-9.951 5.424-1.525.374-1.801.441-2.7 1.341-.9.9-.968 1.175-1.342 2.701-.585 2.388-1.469 5.996-5.424 9.951-3.952 3.953-7.56 4.836-9.949 5.42-1.523.373-1.798.44-2.696 1.338-.897.898-.965 1.173-1.338 2.697-.585 2.388-1.468 5.996-5.422 9.95-3.954 3.953-7.561 4.836-9.95 5.421-1.523.373-1.798.44-2.694 1.337-1.51 1.509-3.488 2.264-5.464 2.264z" fill="#664545"/></g></g></svg>