<svg id="Flat" height="60" viewBox="0 0 512 512" width="60" xmlns="http://www.w3.org/2000/svg"><g fill="#ff6aa0"><path d="m228 92h82.051a109.949 109.949 0 0 1 109.949 109.949v26.051a0 0 0 0 1 0 0h-82.051a109.949 109.949 0 0 1 -109.949-109.949v-26.051a0 0 0 0 1 0 0z" transform="matrix(0 1 -1 0 484 -164)"/><path d="m92 284h82.051a109.949 109.949 0 0 1 109.949 109.949v26.051a0 0 0 0 1 0 0h-82.051a109.949 109.949 0 0 1 -109.949-109.949v-26.051a0 0 0 0 1 0 0z" transform="matrix(0 1 -1 0 540 164)"/><path d="m256 256h82.051a109.949 109.949 0 0 1 109.949 109.949v26.051a0 0 0 0 1 0 0h-82.051a109.949 109.949 0 0 1 -109.949-109.949v-26.051a0 0 0 0 1 0 0z" transform="matrix(-1 0 0 -1 704 648)"/><path d="m64 120h82.051a109.949 109.949 0 0 1 109.949 109.949v26.051a0 0 0 0 1 0 0h-82.051a109.949 109.949 0 0 1 -109.949-109.949v-26.051a0 0 0 0 1 0 0z" transform="matrix(-1 0 0 -1 320 376)"/></g><path d="m256 256-58.849-58.849a109.755 109.755 0 0 0 -155.244 0l-17.907 17.908 58.849 58.848a109.753 109.753 0 0 0 155.244 0z" fill="#fd84b3"/><path d="m488 296.941-58.849-58.848a109.753 109.753 0 0 0 -155.244 0l-17.907 17.907 58.849 58.849a109.755 109.755 0 0 0 155.244 0z" fill="#fd84b3"/><path d="m173.949 256h82.051a0 0 0 0 1 0 0v26.051a109.949 109.949 0 0 1 -109.949 109.949h-82.051a0 0 0 0 1 0 0v-26.051a109.949 109.949 0 0 1 109.949-109.949z" fill="#fda2c6"/><path d="m365.949 120h82.051a0 0 0 0 1 0 0v26.051a109.949 109.949 0 0 1 -109.949 109.949h-82.051a0 0 0 0 1 0 0v-26.051a109.949 109.949 0 0 1 109.949-109.949z" fill="#fda2c6"/><path d="m256 256-58.018 58.018a109.951 109.951 0 0 0 0 155.493l18.018 18.489 58.42-58.087a109.951 109.951 0 0 0 0-155.493z" fill="#fd84b3"/><path d="m296 24-58.42 58.087a109.951 109.951 0 0 0 0 155.493l18.42 18.42 58.018-58.018a109.951 109.951 0 0 0 0-155.493z" fill="#fd84b3"/><path d="m337.949 284h82.051a0 0 0 0 1 0 0v26.051a109.949 109.949 0 0 1 -109.949 109.949h-82.051a0 0 0 0 1 0 0v-26.051a109.949 109.949 0 0 1 109.949-109.949z" fill="#fda2c6" transform="matrix(0 -1 1 0 -28 676)"/><path d="m201.949 92h82.051a0 0 0 0 1 0 0v26.051a109.949 109.949 0 0 1 -109.949 109.949h-82.051a0 0 0 0 1 0 0v-26.051a109.949 109.949 0 0 1 109.949-109.949z" fill="#fda2c6" transform="matrix(0 -1 1 0 28 348)"/><circle cx="256" cy="256" fill="#ffe76c" r="56"/></svg>